<svg xmlns="http://www.w3.org/2000/svg" width="101" height="18" fill="none" viewBox="0 0 101 18"><path fill="#111" d="M1.22 16.47a6.8 6.8 0 0 1-1.2-4.34V5.87A7 7 0 0 1 1.2 1.49Q2.4-.01 5.28 0q2.88 0 3.9 1.31a5.5 5.5 0 0 1 1.14 3.75v1.47H6.77v-1.6q0-.62-.11-1.24a1.4 1.4 0 0 0-.4-.8 1.4 1.4 0 0 0-1-.3q-.38-.05-.74.1-.35.19-.54.52a4.5 4.5 0 0 0-.3 1.84V13a4 4 0 0 0 .34 1.84q.2.32.53.49.34.16.72.12.36.05.7-.12t.5-.5q.31-.88.26-1.83v-1.67h3.55v1.45a6 6 0 0 1-1.05 3.85Q8.09 18 5.32 18c-1.85 0-3.3-.5-4.1-1.53M15.16.24h4.06l3.43 17.55h-3.38l-.6-3.88h-2.85l-.69 3.86H11.7zm3.13 11.47L17.2 4.65l-1.08 7.06zM25.28 2.88h-2.77V.24h9.19v2.64h-2.74v14.89h-3.68z"/><path fill="#444" d="M38.91.24h6.98v1.82h-4.46v5.8h3.62v1.72h-3.62v6.43h4.5v1.76H38.9zM47.95.24h1.72l5.14 11.64V.24h2.1V17.8h-1.6L50.15 5.82v11.95h-2.13zM59.68.24h6.96v1.82h-4.46v5.8h3.66v1.72h-3.62v6.43h4.47v1.76h-7.01zM68.7.24h3.63a6 6 0 0 1 4 1.1q1.29 1.08 1.28 3.56 0 3.34-2.22 4.08l2.57 8.79h-2.43l-2.36-8.23h-1.95v8.23h-2.51zm3.44 7.52c.83.08 1.65-.15 2.32-.63a3 3 0 0 0 .7-2.27 5 5 0 0 0-.25-1.67 1.6 1.6 0 0 0-.86-.9 4 4 0 0 0-1.76-.3h-1.1v5.8zM81 16.47A7.6 7.6 0 0 1 79.9 12V6.15a11 11 0 0 1 .43-3.34c.25-.82.77-1.53 1.5-2.02.86-.5 1.86-.75 2.87-.7a4.6 4.6 0 0 1 3.59 1.24 5.7 5.7 0 0 1 1.1 3.87v.65h-2.36v-.54q.02-.98-.16-1.94a1.7 1.7 0 0 0-.65-1.03A2.6 2.6 0 0 0 84.75 2a2.2 2.2 0 0 0-1.56.47c-.35.32-.58.76-.66 1.23q-.15 1.04-.14 2.08v6.51q-.1 1.51.5 2.9a2.4 2.4 0 0 0 1.94.87 2.5 2.5 0 0 0 1.9-.95q.63-1.46.52-3.05v-1.24h-2.28V9.1h4.55v8.68h-1.56l-.25-2.02c-.2.67-.61 1.26-1.2 1.66-.58.4-1.28.6-2 .57a4.1 4.1 0 0 1-3.52-1.5M94.73 11.58 90.85.24h2.33l2.75 8.46L98.64.24H101l-3.86 11.34v6.19h-2.4z"/></svg>